<svg width="1000" height="1000" viewBox="0 0 1000 1000" fill="none" xmlns="http://www.w3.org/2000/svg">
<g clip-path="url(#clip0_3136_20656)">
<path d="M465.675 273.145C467.872 274.076 470.811 276.182 472.86 277.569C525.928 313.499 539.155 380.469 503.086 433.812C510.195 430.728 516.191 429.096 522.842 424.596C543.955 410.311 550.625 391.068 549.858 366.683C580.957 400.364 588.12 446.861 562.344 486.64C548.833 507.49 528.232 519.502 505.635 528.599C511.362 519.194 513.999 512.31 515.444 501.309C517.998 481.857 507.827 473.58 496.24 459.255C492.075 454.103 487.672 448.842 485.111 442.681C478.612 427.043 482.311 408.926 488.253 393.813C437.815 413.798 431.286 466.839 461.662 507.729C467.128 515.088 472.984 520.151 479.892 526.001C442.03 526.621 403.016 497.334 397.857 458.948C393.317 425.16 407.227 398.001 429.933 374.051C437.152 366.436 444.822 359.077 451.102 350.659C468.563 326.094 470.049 301.742 465.675 273.145Z" fill="#820907"/>
<path d="M370.948 250.717C387.927 258.631 405.035 266.268 422.264 273.625C422.194 300.763 422.637 329.09 422.129 356.079L421.942 362.1C421.399 362.68 420.859 363.263 420.321 363.849C397.362 388.775 381.837 415.331 383.136 450.552C383.944 472.465 392.874 494.424 409.294 509.341H332.671C320.011 509.346 302.364 509.883 290.128 509.077C288.548 508.081 289.115 508.75 288.415 506.968C288.787 504.844 288.375 505.786 289.784 504.067C291.92 502.905 318.414 503.437 322.737 503.437L322.843 271.333C336.404 265.656 352.974 257.541 366.175 250.994C367.239 254.557 366.463 290.786 366.458 297.511L366.489 436.31L366.555 485.559C366.582 489.106 365.638 500.62 367.36 502.837C368.846 503.569 368.737 503.52 370.388 503.291C371.709 501.206 370.962 477.877 370.96 473.379L371.025 416.698L370.948 250.717Z" fill="black"/>
<path d="M389.69 320.045C393.786 321.336 397.067 322.904 400.85 324.886C400.935 330.88 400.88 336.876 400.687 342.869C399.023 342.49 391.711 339.378 389.705 338.568C389.635 332.427 389.689 326.194 389.69 320.045Z" fill="#FCF6F1"/>
<path d="M350.372 284.669C351.655 286.264 351.092 300.005 351.072 302.989L340.529 307.336C339.436 305.31 339.861 292.492 339.879 289.442C343.351 287.794 346.849 286.204 350.372 284.669Z" fill="#FCF6F1"/>
<path d="M350.039 321.742L350.394 321.844C351.532 323.289 351.048 337.077 351.033 340.02C347.527 341.128 344.091 342.58 340.679 343.958L340.552 343.935C339.351 342.471 339.827 328.961 339.834 326.168L350.039 321.742Z" fill="#FCF6F1"/>
<path d="M389.662 283.405C393.209 284.693 397.243 286.537 400.756 288.041C400.849 294.089 400.836 300.138 400.717 306.186C397.147 304.937 393.124 303.102 389.601 301.597L389.662 283.405Z" fill="#FCF6F1"/>
<path d="M583.901 220.025C603.926 228.783 624.712 239.167 644.468 247.502L644.492 503.477L684.214 503.423C688.589 503.418 703.535 501.357 703.828 507.251C703.364 508.071 702.915 508.799 701.748 508.901C690.142 509.927 675.571 509.189 664.043 509.297C629.6 509.624 594.932 508.965 560.566 509.351C578.477 493.711 590.395 466.743 591.602 443.244C592.598 423.775 590.249 410.806 583.286 393.054L583.73 392.826C584.189 387.64 583.921 380.092 583.906 374.63L583.853 342.494C583.887 302.106 583.218 260.256 583.901 220.025Z" fill="black"/>
<path d="M598.613 330.955C602.485 331.113 605.337 331.504 609.131 332.138C609.248 338.184 609.248 344.232 609.121 350.278C606.86 350.36 600.82 348.936 598.53 348.413L598.613 330.955Z" fill="#FCF6F1"/>
<path d="M598.564 294.853C601.797 294.959 605.908 295.695 609.18 296.188C609.272 302.25 609.233 308.313 609.062 314.373C607.485 314.33 600.483 313.019 598.579 312.698L598.564 294.853Z" fill="#FCF6F1"/>
<path d="M598.608 258.754C601.943 258.841 605.913 259.53 609.272 260.019L609.233 278.359C605.898 277.671 601.992 277.16 598.589 276.635L598.608 258.754Z" fill="#FCF6F1"/>
<path d="M621.924 337.755C625.615 337.933 628.428 338.451 632.085 339.072C632.114 345.13 632.075 351.189 631.973 357.247C628.936 356.943 625.029 355.951 621.973 355.267L621.924 337.755Z" fill="#FCF6F1"/>
<path d="M622.007 266.022C625.356 266.534 628.696 267.077 632.031 267.652C632.134 273.521 632.026 279.683 632.017 285.576C628.916 285.374 625.195 284.625 622.08 284.084L622.007 266.022Z" fill="#FCF6F1"/>
<path d="M622.046 302.607C625.083 302.87 628.833 303.468 631.909 303.874L631.924 321.969L622.065 320.328L622.046 302.607Z" fill="#FCF6F1"/>
<path d="M468.69 136.987L468.553 220.804C468.535 227.04 468.116 256.156 469.012 259.991C453.154 249.753 448.091 258.664 452.155 273.642C452.967 276.636 453.654 281.087 453.991 284.179L454.082 285.057L454.275 286.331L454.325 287.489C455.552 318.693 447.722 334.782 427.383 356.742C426.903 347.167 427.236 335.046 427.245 325.249L427.196 270.262C421.39 267.464 408.689 261.599 402.805 259.646L402.665 164.936C408.653 163.149 420.611 157.596 426.611 154.998L468.69 136.987Z" fill="black"/>
<path d="M454.275 286.331C448.755 286.534 433.759 286.599 429.032 285.687L429.15 285.403C435.96 284.809 447.009 285.091 454.082 285.057L454.275 286.331Z" fill="#D1D0CF"/>
<path d="M443.804 175.38C447.162 175.341 449.971 175.54 453.326 175.777C453.554 181.938 453.571 188.105 453.377 194.267L443.66 193.83C443.527 187.68 443.575 181.527 443.804 175.38Z" fill="#FCF6F1"/>
<path d="M443.647 214.848C446.776 214.898 450.359 215.188 453.522 215.374L453.496 233.495L443.572 233.092C443.404 227.042 443.562 220.905 443.647 214.848Z" fill="#FCF6F1"/>
<path d="M419.529 221.57C422.446 221.704 425.642 222.02 428.577 222.251L428.546 240.088L419.479 239.7L419.529 221.57Z" fill="#FCF6F1"/>
<path d="M419.55 182.547C422.43 182.569 425.599 182.765 428.498 182.895C428.668 188.691 428.595 194.875 428.612 200.7L419.592 200.139C419.43 194.442 419.541 188.287 419.55 182.547Z" fill="#FCF6F1"/>
<path d="M473.04 137.099C495.62 147.154 519.204 156.919 541.533 167.206L541.484 232.709C534.463 235.982 527.471 239.329 520.518 242.75L520.464 270.427C520.454 274.79 520.259 281.496 520.605 285.665L520.483 286.076L520.498 308.862C517.251 302.541 509.57 291.541 504.194 286.832L502.7 285.584C492.773 274.952 484.837 269.823 472.653 262.191L473.063 262.656L473.189 182.439C473.187 168.139 473.602 151.239 473.04 137.099Z" fill="black"/>
<path d="M504.194 286.832C508.896 285.978 515.21 287.192 520.483 286.076L520.498 308.862C517.251 302.541 509.57 291.541 504.194 286.832Z" fill="black"/>
<path d="M502.7 285.583C505.859 284.948 517.778 284.666 520.605 285.665L520.483 286.076C515.21 287.192 508.896 285.978 504.194 286.832L502.7 285.583Z" fill="#D1D0CF"/>
<path d="M490.83 176.679C493.774 176.734 498.413 177.531 501.475 177.968C501.572 184.142 501.597 190.316 501.553 196.491C498.003 196.023 494.355 195.311 490.825 194.671C490.679 188.836 490.81 182.55 490.83 176.679Z" fill="#FCF6F1"/>
<path d="M490.874 215.007C494.409 215.376 497.934 215.85 501.44 216.427C501.484 219.983 501.811 231.854 501.138 234.666C497.695 234.063 494.224 233.64 490.757 233.184C490.727 227.144 490.625 221.037 490.874 215.007Z" fill="#FCF6F1"/>
<path d="M515.513 184.391C519.409 184.795 521.802 185.334 525.649 186.223C525.767 192.176 525.767 198.131 525.64 204.084C522.329 203.625 518.691 203.284 515.347 202.902C515.313 196.798 515.449 190.51 515.513 184.391Z" fill="#FCF6F1"/>
<path d="M327.082 564.688L336.426 564.766L336.484 675.361L314.167 675.303L314.028 604.78C303.594 619.414 292.907 635.674 282.093 649.81L274.41 649.863C269.288 643.599 262.396 633.14 257.803 626.323C252.837 619.067 247.813 611.851 242.732 604.673C243.132 612.642 242.774 623.398 242.728 631.592L242.672 675.386L220.569 675.327L220.47 615.923C220.322 598.936 220.353 581.948 220.565 564.966C227.167 564.902 233.771 564.961 240.372 565.137C253.248 584.253 265.919 603.501 278.385 622.886C285.574 611.758 292.846 600.688 300.2 589.673C305.552 581.514 310.98 572.808 316.622 564.893L327.082 564.688Z" fill="#181717"/>
<path d="M525.381 245.763C543.364 237.415 561.221 228.538 579.209 220.075C579.688 259.206 578.916 298.734 579.209 337.896C579.258 344.552 578.682 379.67 579.712 383.623L578.726 383.747C573.281 372.167 558.984 354.355 547.383 348.134C543.135 345.857 539.087 349.083 536.318 352.145C534.639 344.392 533.33 337.827 530.806 330.308C529.707 327.042 525.938 319.525 525.728 317.28C525.083 310.295 525.317 301.711 525.308 294.562L525.381 245.763Z" fill="black"/>
<path d="M561.059 255.558C561.953 256.62 561.616 268.238 561.616 270.388L545.068 273.258C544.038 271.163 544.565 261.4 544.629 258.459C550.112 257.709 555.62 256.589 561.059 255.558Z" fill="#FCF6F1"/>
<path d="M558.433 291.709L559.097 291.638C560.371 292.953 559.829 302.491 559.795 304.985C555.171 305.332 549.223 306.388 544.546 307.086C543.291 307.237 543.73 307.28 542.49 306.823C541.406 303.828 542.046 297.477 542.241 293.99L558.433 291.709Z" fill="#FCF6F1"/>
<path d="M520.674 566.03L588.486 565.977L588.438 584.126C574.59 584.78 557.793 584.253 543.565 584.36C543.501 593.306 543.506 602.251 543.574 611.196L585.562 611.123C585.684 616.826 585.542 622.988 585.508 628.726L543.56 628.789L543.496 633.667L543.579 657.173C558.735 657.427 574.316 657.28 589.497 657.314C589.522 663.296 589.502 669.277 589.443 675.259C566.797 675.61 543.262 675.298 520.542 675.322C520.62 639.551 519.878 601.611 520.674 566.03Z" fill="#181717"/>
<path d="M708.496 565.972L775.879 566.001L775.845 584.16C763.047 584.839 744.551 584.277 731.436 584.312L731.44 611.128L772.949 611.069L772.974 628.765L731.465 628.789L731.401 634.521L731.421 657.168C746.514 657.373 761.885 657.261 777.002 657.3L776.978 675.298L708.408 675.317L708.496 565.972Z" fill="#181717"/>
<path d="M443.741 564.692L453.709 564.717L453.673 657.231L497.49 657.3L497.451 675.278H483.765L431.047 675.293C430.653 661.274 430.903 645.991 430.894 631.89L430.944 564.761L443.741 564.692Z" fill="#181717"/>
<path d="M619.292 565.962L642.144 565.898C642.358 596.338 642.363 626.777 642.153 657.217C656.68 657.402 671.48 657.28 686.025 657.3C686.074 663.237 685.982 669.297 685.957 675.239L619.19 675.332C618.916 661.997 619.17 647.754 619.17 634.336L619.292 565.962Z" fill="#181717"/>
<path d="M371.913 564.595L394.713 564.551L394.611 637.725C394.606 648.184 395.127 664.766 394.443 674.834L393.575 675.303L371.843 675.337C370.698 650.664 372.544 624.624 371.852 599.834C371.533 588.398 371.529 576.001 371.913 564.595Z" fill="#181717"/>
<path d="M263.815 720.796C269.569 720.674 281.77 719.512 285.114 725.298C288.529 731.201 286.093 736.411 280.674 739.966C283.021 743.94 286.058 748.242 288.658 752.114L281.352 752.056C279.708 749.492 274.665 740.112 271.714 740.605C269.534 742.998 270.033 748.579 270.034 751.963L263.901 752.129C263.935 741.685 263.906 731.24 263.815 720.796Z" fill="#820907"/>
<path d="M270.106 726.108C276.176 725.947 283.743 726.519 278.616 734.819C276.25 735.82 272.722 735.615 270.084 735.63L270.106 726.108Z" fill="#FCF6F1"/>
<path d="M602.549 720.859C611.035 720.723 627.207 718.848 624.995 732.764C624.478 736.006 621.758 738.374 619.004 739.902C621.631 743.921 624.37 747.861 627.217 751.724C625.742 752.319 623.149 752.07 621.46 752.036C618.218 751.65 615.176 741.499 610.029 740.322L609.204 740.913C608.545 743.442 608.657 749.121 608.618 752.002L602.539 752.09L602.549 720.859Z" fill="#820907"/>
<path d="M608.516 735.615C611.802 735.61 613.975 735.688 617.217 735.093C621.499 726.548 615.84 725.972 608.799 726.094C608.735 729.18 608.73 732.573 608.516 735.615Z" fill="#FCF6F1"/>
<path d="M382.252 720.327C385.264 721.421 396.976 747.441 399.169 752.017L392.279 752.056L390.307 747.427L383.583 747.217L374.907 747.178L372.956 752.007L365.994 752.051C371.316 741.426 376.736 730.854 382.252 720.327Z" fill="#820907"/>
<path d="M382.612 731.831C383.6 733.184 386.558 739.941 387.216 741.709C386.006 742.358 384.089 742.173 382.568 742.192C381.026 742.28 379.961 742.49 378.532 741.929L378.108 740.928C378.272 738.623 381.27 734.204 382.612 731.831Z" fill="#FCF6F1"/>
<path d="M572.822 720.752C576.929 720.791 589.761 720.024 592.71 721.372C593.306 725.654 592.041 726.211 587.842 726.24C585.005 726.265 582.109 726.133 579.272 726.079L579.199 733.765C582.646 733.74 586.489 733.633 589.927 733.833C590.82 733.887 590.581 733.97 591.26 734.883C591.553 736.816 591.606 736.728 590.957 738.545C588.564 739.575 582.778 738.101 579.453 739.141L579.101 740.132L579.082 747.056C583.525 747.192 589.302 745.972 592.495 748.008C593.506 749.888 593.232 749.15 593.179 751.445C591.343 753.052 576.675 752.114 573.066 752.031C572.598 742.402 572.856 730.552 572.822 720.752Z" fill="#820907"/>
<path d="M719.775 720.723C723.862 720.693 735.811 720.342 739.321 721.167C740.039 722.451 739.785 723.623 739.712 725.137C737.803 726.655 729.053 726.064 726.143 726.025L726.147 733.862C729.775 733.892 735.195 732.891 737.749 735.01C738.467 737.026 738.34 735.991 737.935 738.247C735.884 739.814 730.039 738.247 726.494 739.17L726.055 740.156L726.011 747.168C730.435 847.295 737.183 745.562 739.717 749.189C739.927 751.187 740.186 750.395 739.468 751.875C736.46 752.622 723.511 752.29 719.795 752.275L719.775 720.723Z" fill="#820907"/>
<path d="M295.788 720.772C299.546 720.752 313.548 720.059 315.344 721.67C315.543 723.232 315.689 723.384 315.112 724.873C312.759 726.885 305.618 726.108 302.083 726.113L302.081 733.862C304.112 733.848 311.88 733.613 313.308 734.16C314.114 735.337 314.099 735.962 313.973 737.339C313.635 741.025 305.351 737.314 302.162 739.727L302.084 747.148C306.099 747.222 313.222 745.669 315.431 749.165C315.457 750.942 315.775 750.884 314.895 751.899C311.445 752.549 300.081 752.256 295.75 752.275L295.788 720.772Z" fill="#820907"/>
<path d="M436.115 720.82C439.867 720.771 454.471 720.024 456.226 721.641C456.382 723.33 456.517 723.394 455.707 724.932C453.134 727.031 446.437 726.104 442.367 726.138L442.386 733.813L454.314 733.882C454.34 735.459 454.25 737.28 454.212 738.877C451.857 738.867 443.615 738.384 442.373 739.756L442.374 747.104C446.396 747.163 452.658 746.074 455.508 748.232C456.319 749.731 456.176 749.795 455.969 751.45C453.61 752.808 439.786 752.241 436.145 752.197L436.115 720.82Z" fill="#820907"/>
<path d="M758.814 720.347C762.188 720.249 769.204 721.987 769.351 726.03C765.708 731.157 757.461 720.889 754.824 728.877C756.46 734.277 770.845 734.775 770.947 743.291C771.035 750.835 764.561 752.246 758.442 752.71C754.639 752.422 749.326 751.68 748.018 747.642C748.657 745.645 749.102 745.767 750.913 744.102C753.193 745.845 755.21 747.402 758.184 747.476C761.099 747.544 764.487 746.616 764.36 743.11C762.168 739.189 755.327 738.384 752.153 735.503C743.833 727.959 750.098 721.733 758.814 720.347Z" fill="#820907"/>
<path d="M549.312 720.791C555.688 719.976 558.447 720.742 563.154 725.034C562.671 725.591 560.347 728.286 560.068 728.276C557.524 728.184 549.014 721.577 548.398 729.536C550.986 734.473 562.891 734.375 564.253 741.626C565.615 748.911 560.122 751.514 553.96 752.71C548.135 752.788 544.849 751.738 540.747 747.607L544.614 744.072C548.311 746.65 554.785 750.22 557.896 744.688C557.334 738.701 545.098 738.394 542.476 732.114C539.985 726.143 544.312 722.871 549.312 720.791Z" fill="#820907"/>
<path d="M349.275 720.371C354.42 720.723 355.983 721.514 359.712 725.01L356.069 728.975C353.182 725.957 349.28 725.342 345.4 726.934C340.573 733.735 359.975 732.603 360.831 743.218C361.014 745.366 360.282 747.49 358.815 749.067C356.26 751.846 351.774 752.573 348.199 752.754C342.969 752.139 341.001 751.177 337.203 747.632L341.098 744.194C343.544 745.903 345.679 747.476 348.773 747.534C351.713 747.593 354.625 746.67 354.518 743.169C352.094 738.555 339.19 737.383 338.363 730.674C337.501 723.696 343.855 721.108 349.275 720.371Z" fill="#820907"/>
<path d="M699.209 720.342C704.81 720.151 707.817 721.782 712.227 724.761L708.784 729.272C700.4 721.763 692.583 727.339 689.629 736.704C691.675 743.472 692.969 745.547 700.093 747.612C703.774 746.904 704.878 746.533 708.14 744.653L708.535 744.404C709.834 744.868 711.211 747.441 712.065 748.735C705.356 752.754 698.179 754.653 691.074 750.024C687.437 747.646 684.897 743.916 684.014 739.663C683.174 735.449 684.077 731.074 686.519 727.534C689.731 722.891 693.94 721.25 699.209 720.342Z" fill="#820907"/>
<path d="M630.005 720.767L636.753 720.732C639.365 727.192 642.827 734.404 645.864 740.679C648.818 734.048 651.841 727.446 654.927 720.869L661.24 720.903L657.09 729.81C655.322 733.687 648.818 748.696 646.724 751.616C646.152 751.841 645.679 752.183 645.41 751.826C641.157 746.147 632.666 726.763 630.005 720.767Z" fill="#820907"/>
<path d="M218.637 720.752C222.507 720.742 236.739 720.112 238.786 721.67C238.915 723.33 239.049 723.408 238.242 724.907C235.619 727.026 228.901 726.104 224.745 726.162L224.718 734.419C229.051 734.551 232.225 733.594 236.062 734.961C237.281 736.489 236.873 736.323 236.997 738.745L236.493 739.39C234.062 739.99 227.528 739.839 224.719 739.854L224.599 752.188L218.373 752.1C218.402 741.733 218.307 731.089 218.637 720.752Z" fill="#820907"/>
<path d="M407.239 720.747C412.251 720.737 422.82 720.454 427.186 721.221C428.097 722.9 427.746 722.905 427.69 725.137C425.748 726.641 416.516 726.069 413.616 726.03L413.598 734.634C417.968 734.746 421.073 733.696 424.969 734.971C426.294 736.475 425.862 736.255 426.067 738.755L425.458 739.458C422.622 739.946 416.711 739.756 413.609 739.751L413.524 752.227L407.265 752.124L407.239 720.747Z" fill="#820907"/>
<path d="M492.222 720.845L499.893 720.708C501.641 724.067 505.386 729.639 507.51 733.018C510 728.911 512.603 724.873 515.322 720.918L522.202 721.04C519.868 724.81 516.836 729.082 514.326 732.813L510.327 738.813C510.649 743.242 510.547 747.666 510.513 752.105L504.287 752.3L504.238 739.082C500.313 732.988 495.923 727.002 492.222 720.845Z" fill="#820907"/>
<path d="M462.979 720.85C467.732 720.84 483.026 720.474 486.755 721.152C487.588 722.324 487.827 724.639 486.876 725.786C484.678 726.543 481.123 726.24 478.664 726.196L478.57 744.751L478.512 752.012L472.211 752.28L472.118 726.138C469.44 726.123 465.73 726.719 463.662 725.527C462.578 724.087 462.909 722.734 462.979 720.85Z" fill="#820907"/>
<path d="M668.735 720.801L674.951 720.84C675.127 731.26 675.117 741.685 674.931 752.105L668.862 752.163C668.764 741.885 668.486 731.03 668.735 720.801Z" fill="#820907"/>
<path d="M247.306 720.757L253.477 720.855C253.593 731.318 253.581 741.787 253.44 752.251L247.483 752.231C247.336 741.743 247.277 731.25 247.306 720.757Z" fill="#820907"/>
<path d="M578.726 383.747L579.712 383.623C580.513 385.286 583.364 392.28 583.73 392.826L583.286 393.054C581.831 390.979 579.858 386.257 578.726 383.747Z" fill="#4F4F4F"/>
</g>
<defs>
<clipPath id="clip0_3136_20656">
<rect width="1000" height="1000" fill="white"/>
</clipPath>
</defs>
</svg>